<?xml version="1.0" encoding="UTF-8" standalone="no"?>
<!-- Created with Inkscape (http://www.inkscape.org/) -->

<svg
   version="1.1"
   id="svg1"
   width="191"
   height="67.400002"
   viewBox="0 0 191 67.400002"
   sodipodi:docname="SVMLogo.svg"
   inkscape:export-filename="aaaaa.svg"
   inkscape:export-xdpi="96"
   inkscape:export-ydpi="96"
   inkscape:version="1.4.2 (f4327f4, 2025-05-13)"
   xmlns:inkscape="http://www.inkscape.org/namespaces/inkscape"
   xmlns:sodipodi="http://sodipodi.sourceforge.net/DTD/sodipodi-0.dtd"
   xmlns="http://www.w3.org/2000/svg"
   xmlns:svg="http://www.w3.org/2000/svg">
  <defs
     id="defs1" />
  <sodipodi:namedview
     id="namedview1"
     pagecolor="#ffffff"
     bordercolor="#000000"
     borderopacity="0.25"
     inkscape:showpageshadow="2"
     inkscape:pageopacity="0.0"
     inkscape:pagecheckerboard="0"
     inkscape:deskcolor="#d1d1d1"
     inkscape:zoom="2.3246073"
     inkscape:cx="53.987613"
     inkscape:cy="-6.6677928"
     inkscape:window-width="1920"
     inkscape:window-height="1009"
     inkscape:window-x="1912"
     inkscape:window-y="-8"
     inkscape:window-maximized="1"
     inkscape:current-layer="g1" />
  <g
     inkscape:groupmode="layer"
     inkscape:label="Image"
     id="g1">
    <path
       id="path1"
       style="fill:none;stroke:#000000;stroke-opacity:1"
       d="m 0,59.050001 v -8.35 H 23.55 47.1 v -4.45 -4.45 l -18.925,-0.0031 C 16.66986,41.795036 8.9597232,41.756148 8.5096236,41.697725 4.9302625,41.233122 1.9701236,39.230175 0.65655641,36.384028 -0.02772526,34.901374 -1.8921222e-4,35.555475 0.00173636,20.829216 0.00362759,6.3656648 -0.0177858,6.9381835 0.57396748,5.5297682 1.5967539,3.0954632 4.001139,1.1678124 7.0722651,0.31993374 L 8.05,0.05 H 40.9 73.75 l 0.778546,0.22566661 c 2.042346,0.59198763 3.696497,1.81857609 4.841447,3.59003679 0.211585,0.3273633 3.871144,8.2988876 8.132354,17.7144976 C 91.763556,30.995812 95.2725,38.698056 95.3,38.6963 c 0.0275,-0.0018 3.487959,-7.595393 7.68991,-16.874747 4.20195,-9.279354 7.82445,-17.2051362 8.05,-17.6128492 0.81168,-1.467224 2.45454,-2.9141234 4.07033,-3.58481418 C 116.73182,-0.04920839 113.96125,0 150.23699,0 c 27.91437,0 32.95558,0.02125363 33.57921,0.14156932 2.7539,0.53130167 5.04232,2.37655038 6.14867,4.95793168 C 190.64861,6.6948336 190.6,4.2227717 190.6,37.395785 v 30.004217 h -8.35 -8.35 V 42.050001 16.7 h -4.2 -4.2 v 25.350001 25.350001 h -8.35 -8.35 V 42.050001 16.7 h -4.2 -4.2 v 25.350001 25.350001 h -8.34981 -8.3498 l 0.0286,-21.397522 0.5006,-27.583927 c 0,0 -0.72203,-2.094198 -2.12506,-0.232194 l -5.24927,13.592613 C 105.58534,60.961636 102.71961,62.90793 102.38554,63.46446 101.30473,65.26498 99.302661,66.692476 97.130125,67.211633 95.969314,67.489027 94.02758,67.435551 92.95,67.096511 90.989421,66.479652 89.390539,65.290534 88.311576,63.646831 88.017776,63.199253 84.051573,54.540206 77.4,39.824591 L 66.95,16.705523 43.425,16.702762 19.9,16.7 v 4.198525 4.198525 l 19.525,0.02648 19.525,0.02648 0.977735,0.269933 c 1.165102,0.321663 2.657786,1.009381 3.507417,1.615959 0.790535,0.564387 2.020544,1.865263 2.450309,2.591484 0.483233,0.816571 0.818108,1.700195 0.972674,2.566561 0.198475,1.112479 0.198475,26.999647 0,28.112126 -0.261496,1.465728 -0.894072,2.679201 -2.029243,3.892707 -1.492108,1.595075 -3.493131,2.63982 -5.821514,3.039446 -0.853625,0.14651 -3.683663,0.161785 -29.975,0.161785 H 0 Z"
       sodipodi:nodetypes="cccccccssssscccssscsssssssccccccccccccccccccccccsssssscccccccsssssssscc" />
  </g>
</svg>
